<?xml version="1.0" encoding="utf-8"?>
<!-- Generator: Adobe Illustrator 28.0.0, SVG Export Plug-In . SVG Version: 6.00 Build 0)  -->
<!DOCTYPE svg PUBLIC "-//W3C//DTD SVG 1.1//EN" "http://www.w3.org/Graphics/SVG/1.1/DTD/svg11.dtd" [
	<!ENTITY ns_extend "http://ns.adobe.com/Extensibility/1.0/">
	<!ENTITY ns_ai "http://ns.adobe.com/AdobeIllustrator/10.0/">
	<!ENTITY ns_graphs "http://ns.adobe.com/Graphs/1.0/">
	<!ENTITY ns_vars "http://ns.adobe.com/Variables/1.0/">
	<!ENTITY ns_imrep "http://ns.adobe.com/ImageReplacement/1.0/">
	<!ENTITY ns_sfw "http://ns.adobe.com/SaveForWeb/1.0/">
	<!ENTITY ns_custom "http://ns.adobe.com/GenericCustomNamespace/1.0/">
	<!ENTITY ns_adobe_xpath "http://ns.adobe.com/XPath/1.0/">
]>
<svg version="1.1" xmlns:x="&ns_extend;" xmlns:i="&ns_ai;" xmlns:graph="&ns_graphs;"
	 xmlns="http://www.w3.org/2000/svg" xmlns:xlink="http://www.w3.org/1999/xlink" x="0px" y="0px" viewBox="0 0 283.5 283.5"
	 style="enable-background:new 0 0 283.5 283.5;" xml:space="preserve">
<style type="text/css">
	.st0{display:none;}
	.st1{display:inline;}
	.st2{fill:#FDFDFD;}
	.st3{fill:#CCCDCF;}
	.st4{fill:#2563C4;}
	.st5{fill:#2663C4;}
	.st6{fill:#2664C5;}
	.st7{fill:#2764C5;}
	.st8{fill:#2865C5;}
	.st9{fill:#2765C5;}
	.st10{fill:#2966C5;}
	.st11{fill:#2966C6;}
	.st12{fill:#2A67C6;}
	.st13{fill:#2866C5;}
	.st14{fill:#2B68C6;}
	.st15{fill:#2C68C6;}
	.st16{fill:#2C69C6;}
	.st17{fill:#2B67C6;}
	.st18{fill:#2D69C7;}
	.st19{fill:#316DC8;}
	.st20{fill:#2D6AC7;}
	.st21{fill:#F0F5FA;}
	.st22{fill:#3A76CB;}
	.st23{fill:#4078CC;}
	.st24{fill:#5188D1;}
	.st25{fill:#81AADE;}
	.st26{fill:#98BAE3;}
	.st27{fill:#FEFEFE;}
	.st28{fill:#E6EEF8;}
	.st29{fill:#F3F7FB;}
	.st30{fill:#E9F0F8;}
	.st31{fill:#F6F8FC;}
	.st32{fill:#64A048;}
	.st33{fill:#6CA24F;}
	.st34{fill:#FAFAF9;}
	.st35{fill:#F9FAF9;}
	.st36{fill:#9CBC53;}
	.st37{fill:#F9FAF8;}
	.st38{fill:#87B353;}
	.st39{fill:#FBFBF8;}
	.st40{fill:#FAFBF8;}
	.st41{fill:#F9F9F7;}
	.st42{fill:#FAFAF6;}
	.st43{fill:#F7F8F4;}
	.st44{fill:#F5F8F3;}
	.st45{fill:#6CA84F;}
	.st46{fill:#6BA34F;}
	.st47{fill:#87B253;}
	.st48{fill:#71A74F;}
	.st49{fill:#80AE50;}
	.st50{fill:#7BAC4E;}
	.st51{fill:#94B753;}
	.st52{fill:#75A84E;}
	.st53{fill:#8FB754;}
	.st54{fill:#72A84F;}
	.st55{fill:#7CAD4F;}
	.st56{fill:#81B051;}
	.st57{fill:#77AA4F;}
	.st58{fill:#93B754;}
	.st59{fill:#C6CC54;}
	.st60{fill:#B3C051;}
	.st61{fill:#AEC152;}
	.st62{fill:#A8C157;}
	.st63{fill:#AEC153;}
	.st64{fill:#A2BD52;}
	.st65{fill:#A9C153;}
	.st66{fill:#9ABC54;}
	.st67{display:inline;fill:url(#SVGID_1_);}
	.st68{display:inline;fill:url(#SVGID_00000007418876862729308120000005179390429471451056_);}
	.st69{display:inline;fill:url(#SVGID_00000008110355945249282950000003004682680286494345_);}
	.st70{display:inline;fill:url(#SVGID_00000072958631005677288840000009259859531984644773_);}
	.st71{display:inline;fill:url(#SVGID_00000118357434902812699910000009566011284784252336_);}
	.st72{fill:#FFFFFF;}
	.st73{fill:url(#SVGID_00000088850502471521664070000013921009775549054340_);}
	.st74{fill:url(#SVGID_00000042006494919659562700000005899618624744315050_);}
	.st75{fill:url(#SVGID_00000053541151806117603190000004656701017219025852_);}
	.st76{fill:url(#SVGID_00000050635196705485707690000004609704748633342896_);}
	.st77{display:inline;fill:url(#SVGID_00000164510692052649364110000011677720189984266627_);}
	.st78{display:none;fill:url(#SVGID_00000142153751979718301870000012220877837392344223_);}
	.st79{fill:#1D1D1B;}
	.st80{fill:url(#SVGID_00000097493859927578935350000012702493307438472850_);}
	.st81{fill:url(#SVGID_00000092428976022176105920000010949554041370942885_);}
	.st82{fill:url(#SVGID_00000005981271849173769660000003424763310072216967_);}
</style>
<switch>
	<g i:extraneous="self">
		<g id="Ebene_1" class="st0">
		</g>
		<g id="Ebene_10">
		</g>
		<g id="Ebene_12" class="st0">
		</g>
		<g id="Ebene_2">
		</g>
		<g id="Ebene_6_Kopie_Kopie" class="st0">
			<linearGradient id="SVGID_1_" gradientUnits="userSpaceOnUse" x1="45.0435" y1="-25.7377" x2="238.4211" y2="309.2022">
				<stop  offset="0.2004" style="stop-color:#C6CC54"/>
				<stop  offset="0.7845" style="stop-color:#64A048"/>
			</linearGradient>
			<rect x="0.2" y="0.2" class="st67" width="283.1" height="283.1"/>
		</g>
		<g id="Ebene_3">
		</g>
		<g id="Ebene_6_Kopie" class="st0">
		</g>
		<g id="Ebene_4">
		</g>
		<g id="Ebene_6">
		</g>
		<g id="Ebene_6_Kopie_Kopie_Kopie">
			<g id="Ebene_5">
				
					<linearGradient id="SVGID_00000081623368765060235220000011231346042510781117_" gradientUnits="userSpaceOnUse" x1="31.3461" y1="-54.4633" x2="242.6818" y2="298.6218" gradientTransform="matrix(1 5.235547e-03 -5.235547e-03 1 0.743 0.9355)">
					<stop  offset="0.2415" style="stop-color:#C6CC54"/>
					<stop  offset="0.737" style="stop-color:#64A048"/>
				</linearGradient>
				<path style="fill:url(#SVGID_00000081623368765060235220000011231346042510781117_);" d="M196.5,92.8
					c-27.9-0.3-44.2-0.5-70.7-0.4c-26.3-0.1-48.4,20.6-48.9,46.8c-0.6,26.8,20.9,48.8,47.7,49c19.4,0.1,36-11.3,43.7-27.8
					c12.1-28.1,17.6-41.1,28.6-67.3C196.9,93,196.7,92.8,196.5,92.8z"/>
				
					<linearGradient id="SVGID_00000028299385464799959690000015544750083871436941_" gradientUnits="userSpaceOnUse" x1="-65.1529" y1="-375.9887" x2="338.7063" y2="623.5978">
					<stop  offset="0.3868" style="stop-color:#DAD553"/>
					<stop  offset="0.5738" style="stop-color:#609D46"/>
				</linearGradient>
				<path style="fill:url(#SVGID_00000028299385464799959690000015544750083871436941_);" d="M272.7,219.8l-32.4-54.3
					c-0.2-0.3-0.2-0.7-0.1-1l27.3-67.8c0.8-1.9-0.6-3.9-2.6-3.9h-26c-3,0-5.8,2-6.7,4.8l0,0c0,0,0,0,0-0.1
					c-9.7,23.9-21.4,50.1-34,77.9c-13.6,27.7-42.4,47.5-75.6,46.7c-42.4-1.1-77.3-35.1-79.5-77.4c-2.4-47.1,35.1-86.6,81.7-86.6
					c23.1,0,44.1,0.4,70.3,0.6c3.7,0,5.4-5,2.5-7.4c-20.2-16.6-46.1-26.2-74.2-25.8C62.5,26.3,12.4,75,10,135.8
					c-2.5,65.4,49.9,119.3,114.7,119.3c13,0,25.7-1.9,37.5-5.8c21.9-7.3,41-21.1,54.6-38.8c2.3-3,4.2-5.5,6.2-8.7
					c0.1-0.2,0.4-0.2,0.5,0l11,16c4.2,6.6,11.4,10.6,19.2,10.6l14.2,0C272.2,228.4,275,223.6,272.7,219.8z"/>
			</g>
			<g id="Ebene_13">
			</g>
			<g id="Ebene_11">
			</g>
		</g>
	</g>
</switch>
</svg>
